<svg width="25" height="26" viewBox="0 0 25 26" fill="none" xmlns="http://www.w3.org/2000/svg">
<path fill-rule="evenodd" clip-rule="evenodd" d="M22.5492 3.45687C22.8448 3.7141 22.9766 4.11833 22.8911 4.50603L19.2453 21.0554C19.1657 21.4164 18.9096 21.7094 18.5682 21.8299C18.2269 21.9503 17.849 21.881 17.5696 21.6466L12.8052 17.6512L10.8065 21.3388C10.6019 21.7164 10.1955 21.9303 9.77696 21.881C9.3584 21.8318 9.01002 21.5289 8.89427 21.1136L6.98543 14.2657L2.39991 13.3257C1.94876 13.2331 1.61025 12.8483 1.56712 12.3787C1.52399 11.9092 1.78647 11.4664 2.21283 11.2891L21.4836 3.28137C21.843 3.13204 22.2535 3.19966 22.5492 3.45687ZM6.21551 11.9302L8.01681 12.2994C8.39928 12.3778 8.70697 12.6686 8.81412 13.0531L10.2066 18.0485L11.5895 15.4971C11.7394 15.2205 12.0011 15.0264 12.3044 14.9669C12.6075 14.9075 12.9207 14.9889 13.1597 15.1892L17.5844 18.9L20.4201 6.02752L6.21551 11.9302Z" fill="#CC2222"/>
<path fill-rule="evenodd" clip-rule="evenodd" d="M22.43 5.17431C22.8868 4.87958 23.0482 4.27614 22.8021 3.78387C22.5559 3.29158 21.9837 3.07347 21.4836 3.2813L2.21283 11.2891C1.78647 11.4663 1.52399 11.9092 1.56712 12.3786C1.61025 12.8482 1.94876 13.2331 2.39991 13.3256L7.60824 14.3933C7.86993 14.4469 8.14171 14.3955 8.36754 14.2498L22.43 5.17431Z" fill="#CC2222"/>
<path fill-rule="evenodd" clip-rule="evenodd" d="M22.8912 4.50607C22.9975 4.02305 22.7659 3.52842 22.3318 3.31131C21.8976 3.09418 21.3748 3.21154 21.0689 3.59478L11.6939 15.3396C11.3295 15.7959 11.3951 16.4686 11.8404 16.8421L17.5696 21.6468C17.849 21.881 18.2269 21.9504 18.5682 21.83C18.9096 21.7096 19.1657 21.4165 19.2453 21.0556L22.8912 4.50607Z" fill="#CC2222"/>
</svg>
